<?xml version="1.0" encoding="UTF-8"?>
<svg version="1.1" xmlns="http://www.w3.org/2000/svg" width="512" height="512">
<path d="M0 0 C0.73809018 -0.00350607 1.47618036 -0.00701215 2.23663691 -0.01062447 C4.69945677 -0.01989711 7.16203801 -0.01502592 9.62486744 -0.01015663 C11.41267218 -0.01389498 13.2004753 -0.01849724 14.98827583 -0.02388728 C19.89340488 -0.03610991 24.79846568 -0.03585767 29.70360649 -0.03349853 C34.99688985 -0.03309017 40.29015139 -0.04413131 45.58342457 -0.05361366 C55.95136435 -0.07022079 66.31928138 -0.07572309 76.68723335 -0.07683842 C85.11609209 -0.07778906 93.54494334 -0.08190019 101.97379971 -0.08823967 C125.87717203 -0.10585158 149.7805264 -0.11507866 173.68390527 -0.11357872 C175.61653144 -0.11345885 175.61653144 -0.11345885 177.58820057 -0.11333656 C178.87819333 -0.1132548 180.1681861 -0.11317304 181.49726955 -0.1130888 C202.40075613 -0.112276 223.30417064 -0.13141237 244.20763638 -0.1596133 C265.67706316 -0.18834892 287.14645479 -0.2021532 308.61590129 -0.20042574 C320.66696263 -0.19976206 332.71794842 -0.20524489 344.76899242 -0.22678185 C355.03011804 -0.24500257 365.29113385 -0.24933362 375.55226865 -0.235763 C380.7852752 -0.22923781 386.01807117 -0.22910006 391.25105762 -0.2464695 C396.0472268 -0.26222496 400.84301885 -0.25931123 405.63917897 -0.24190123 C407.36863649 -0.23883679 409.09812233 -0.24244265 410.82754644 -0.25362138 C426.26565585 -0.34675371 439.15142759 1.98331552 450.96149158 12.69476891 C451.72461658 13.54039391 452.48774158 14.38601891 453.27399158 15.25726891 C453.99522205 15.97269859 453.99522205 15.97269859 454.73102283 16.70258141 C461.08123234 23.35824402 465.38801274 33.22172929 465.41100597 42.43148422 C465.41608052 43.50929291 465.42115506 44.5871016 465.42638338 45.69757116 C465.42713001 47.48045299 465.42713001 47.48045299 465.42789173 49.29935265 C465.43227399 50.5586448 465.43665624 51.81793695 465.44117129 53.11538947 C465.45314044 56.61800041 465.45878607 60.12059758 465.46335244 63.62322497 C465.46930753 67.39851647 465.48091789 71.1737915 465.49164295 74.94907188 C465.51617346 84.07217066 465.5307973 93.19527489 465.54370302 102.31839651 C465.5474152 104.89606396 465.55138843 107.47373088 465.55545568 110.0513978 C465.58069809 126.0632756 465.60274821 142.07515427 465.61518383 158.08704758 C465.61811348 161.79662008 465.62107514 165.50619256 465.62408924 169.215765 C465.62483529 170.13774904 465.62558134 171.05973308 465.62635 172.00965603 C465.63899277 186.93195095 465.67220037 201.85412643 465.71389107 216.77636556 C465.7563594 232.10288229 465.77988473 247.42933798 465.78510439 262.75591338 C465.78851352 271.35860303 465.80020927 279.96110622 465.83320713 288.56373787 C465.86127655 295.89352558 465.87217701 303.2230886 465.86101167 310.55292587 C465.85584204 314.28932849 465.85859987 318.02526113 465.88347721 321.76159477 C465.91029271 325.82316823 465.89785153 329.88371774 465.88199329 333.94534874 C465.89587538 335.11162941 465.90975747 336.27791009 465.92406023 337.4795326 C465.79520376 350.93428628 460.73411504 361.32445349 451.71149158 371.00726891 C442.11966995 379.86125811 431.68577305 384.50039036 418.54798317 384.51453781 C417.4408479 384.51979692 417.4408479 384.51979692 416.31134626 384.52516228 C413.8485264 384.53443492 411.38594516 384.52956373 408.92311573 384.52469444 C407.13531098 384.52843279 405.34750787 384.53303505 403.55970734 384.53842509 C398.65457829 384.55064772 393.74951748 384.55039548 388.84437668 384.54803634 C383.55109332 384.54762798 378.25783178 384.55866912 372.9645586 384.56815147 C362.59661882 384.5847586 352.22870179 384.5902609 341.86074982 384.59137623 C333.43189108 384.59232687 325.00303983 384.596438 316.57418346 384.60277748 C292.67081114 384.6203894 268.76745676 384.62961647 244.8640779 384.62811653 C242.93145173 384.62799666 242.93145173 384.62799666 240.9597826 384.62787437 C239.66978984 384.62779261 238.37979707 384.62771085 237.05071362 384.62762661 C216.14722704 384.62681381 195.24381253 384.64595019 174.34034679 384.67415111 C152.87092001 384.70288674 131.40152838 384.71669101 109.93208188 384.71496356 C97.88102054 384.71429987 85.83003475 384.7197827 73.77899075 384.74131966 C63.51786513 384.75954038 53.25684932 384.76387143 42.99571452 384.75030081 C37.76270797 384.74377562 32.529912 384.74363788 27.29692554 384.76100731 C22.50075637 384.77676277 17.70496432 384.77384905 12.9088042 384.75643905 C11.17934668 384.7533746 9.44986084 384.75698046 7.72043673 384.7681592 C-7.71767268 384.86129153 -20.60344442 382.53122229 -32.41350842 371.81976891 C-33.17663342 370.97414391 -33.93975842 370.12851891 -34.72600842 369.25726891 C-35.20682873 368.76871422 -35.68764904 368.28015953 -36.18303967 367.77680016 C-42.79365415 360.73105662 -46.83886201 351.63348348 -46.8630228 341.96000576 C-46.86809735 340.88020602 -46.87317189 339.80040629 -46.87840021 338.68788534 C-46.87889796 337.50221029 -46.87939572 336.31653525 -46.87990856 335.09493065 C-46.88429082 333.83478407 -46.88867307 332.5746375 -46.89318812 331.27630466 C-46.9051419 327.77595306 -46.91079931 324.27561523 -46.91536927 320.77524722 C-46.92133006 317.00065498 -46.93293887 313.22607918 -46.94365978 309.45149803 C-46.96817523 300.33326635 -46.9828109 291.21502922 -46.99571985 282.09677473 C-46.9994328 279.52027732 -47.00340596 276.94378045 -47.00747252 274.36728358 C-47.03271312 258.3599808 -47.05476146 242.35267714 -47.06720066 226.34535885 C-47.07013026 222.63801699 -47.07309193 218.93067515 -47.07610607 215.22333336 C-47.07685212 214.30191482 -47.07759817 213.38049628 -47.07836683 212.43115597 C-47.09101178 197.51539115 -47.12422352 182.59974577 -47.1659079 167.68403674 C-47.20837583 152.3620084 -47.23190141 137.04004112 -47.23712122 121.7179541 C-47.24053013 113.11863276 -47.25222357 104.51949797 -47.28522396 95.92023468 C-47.31329267 88.59413096 -47.32419408 81.26825205 -47.3130285 73.94209874 C-47.30785893 70.20771434 -47.31061642 66.47380018 -47.33549404 62.73948479 C-47.3623096 58.6801542 -47.34986838 54.62184811 -47.33401012 50.56245995 C-47.34789221 49.39686139 -47.3617743 48.23126284 -47.37607706 47.03034312 C-47.2471707 33.57789884 -42.18441473 23.18824153 -33.16350842 13.50726891 C-23.57168678 4.6532797 -13.13778988 0.01414745 0 0 Z M-13.03850842 37.88226891 C-16.36369532 42.56216158 -16.30086887 46.63060442 -15.72600842 52.25726891 C-11.06955611 63.3440601 6.69841506 71.2175257 16.44611073 77.59418297 C32.63994277 88.19154521 48.75002586 98.90496638 64.77399158 109.75726891 C80.1129036 120.14278592 95.53459476 130.39274238 111.01913929 140.5596981 C124.98571777 149.73310221 138.87197842 159.01836401 152.71149158 168.38226891 C165.18987588 176.8224048 177.68330498 185.23530944 190.27399158 193.50726891 C190.88258015 193.90867088 191.49116871 194.31007286 192.11819935 194.72363853 C193.79268444 195.82711051 195.47073288 196.92516969 197.14899158 198.02289391 C198.07453846 198.62907555 199.00008533 199.23525719 199.95367908 199.85980797 C204.23766561 202.43993622 208.37527668 202.89188869 213.27399158 202.25726891 C219.30182923 199.98281672 224.63741543 196.16639858 229.91461658 192.54242516 C230.73742115 191.98369209 231.56022572 191.42495903 232.40796375 190.84929466 C234.18512136 189.64220409 235.96089604 188.43307545 237.73541737 187.22211266 C242.55822923 183.93202772 247.3925343 180.65893013 252.22711658 177.38617516 C253.22618031 176.70958855 254.22524403 176.03300194 255.25458241 175.3359127 C265.53459412 168.38510308 275.89881076 161.5648335 286.27399158 154.75726891 C301.74197119 144.60243835 317.1201448 134.32438819 332.44217396 123.95081139 C346.1732041 114.65771478 359.9797302 105.48668958 373.83649158 96.38226891 C393.22702308 83.63091469 393.22702308 83.63091469 412.53641224 70.75720787 C414.00973531 69.76958047 415.48489279 68.78468326 416.96201038 67.8027401 C418.97753584 66.46193127 420.98596161 65.11111963 422.99274158 63.75726891 C423.57595676 63.37215141 424.15917194 62.98703392 424.76006031 62.5902462 C428.88001385 59.78595422 432.03059019 56.7440717 434.27399158 52.25726891 C434.81759604 47.30244797 434.83836233 43.38601039 432.58649158 38.88226891 C429.4632099 35.33692213 426.7921757 32.76333028 422.27399158 31.25726891 C419.93524346 31.1602104 417.59374972 31.1262864 415.25299072 31.12304783 C414.53039121 31.1206956 413.80779169 31.11834337 413.06329522 31.11591986 C410.6231924 31.10922187 408.18314275 31.10968832 405.7430315 31.11009789 C403.98342791 31.10679977 402.22382507 31.10307431 400.46422321 31.09895641 C395.61411178 31.08892256 390.76401273 31.0852174 385.91389239 31.0825671 C380.68882731 31.07866822 375.46377207 31.06908969 370.23871326 31.06035423 C357.61394739 31.04057942 344.98918071 31.03052293 332.36440322 31.02162644 C326.42335963 31.01724575 320.48231695 31.01187843 314.54127407 31.00663757 C294.79978813 30.9896253 275.05830275 30.97512977 255.31681061 30.96788883 C250.19226741 30.96597885 245.06772422 30.96405853 239.94318104 30.96210289 C238.03259783 30.96137728 238.03259783 30.96137728 236.08341698 30.96063701 C215.43678115 30.95233163 194.79020317 30.92698613 174.14359262 30.89452221 C152.96025504 30.86148506 131.77694689 30.84344315 110.59358341 30.84024459 C98.69413086 30.83807654 86.79476269 30.82928463 74.8953352 30.80378342 C64.76418182 30.78212218 54.63313331 30.77400344 44.50195941 30.7837502 C39.33060779 30.78830802 34.15947278 30.78632281 28.9881506 30.76698875 C24.25630077 30.74945008 19.52482704 30.75027878 14.79297373 30.76588605 C13.07896615 30.7682763 11.36493315 30.76386569 9.65096458 30.7520574 C7.32435487 30.7370181 4.99909155 30.74655431 2.67251587 30.76228428 C1.37929576 30.76130747 0.08607565 30.76033066 -1.24633294 30.75932425 C-6.52452839 31.51463871 -9.57243506 33.94780726 -13.03850842 37.88226891 Z M-16.72600842 93.25726891 C-16.77164792 124.07785259 -16.80703517 154.89842854 -16.82813907 185.71903795 C-16.83064044 189.35889754 -16.83322909 192.99875707 -16.8358717 196.63861656 C-16.83639632 197.36323747 -16.83692094 198.08785837 -16.83746146 198.83443749 C-16.84616061 210.56255565 -16.86192788 222.29065417 -16.88031401 234.01876068 C-16.89902669 246.05569018 -16.91012804 258.0926094 -16.9141854 270.12955284 C-16.91668176 276.88932684 -16.92267869 283.64905992 -16.93746853 290.4088192 C-16.95104464 296.77151494 -16.95523096 303.13414784 -16.95222378 309.49685669 C-16.95277392 311.83170793 -16.95675115 314.16656128 -16.96441936 316.50139999 C-16.97438092 319.69101476 -16.97197273 322.88039272 -16.96651745 326.07001305 C-16.97234313 326.99221075 -16.97816881 327.91440845 -16.98417103 328.86455154 C-16.95286985 335.64337651 -16.69486732 342.85889682 -11.91350842 348.13226891 C-11.4326881 348.68656578 -10.95186779 349.24086266 -10.45647717 349.81195641 C-6.20348742 353.36411488 -1.84932337 353.50813008 3.52547073 353.5117445 C4.24868957 353.51495098 4.9719084 353.51815746 5.71704295 353.5214611 C8.14727458 353.52978106 10.57726104 353.52382988 13.00749683 353.51796532 C14.76470256 353.52098509 16.52190698 353.52487369 18.27910906 353.52955788 C23.11332164 353.53986905 27.94746031 353.53764814 32.78167903 353.53337729 C37.99307841 353.53091573 43.20445973 353.53991711 48.41585255 353.54741478 C58.62745031 353.5601795 68.83902181 353.56195328 79.05062621 353.55961452 C87.34851432 353.55783325 95.64639443 353.55957689 103.94428158 353.56383896 C105.71412273 353.56473174 105.71412273 353.56473174 107.51971825 353.56564256 C109.91647819 353.56685428 112.31323814 353.56806841 114.70999808 353.56928494 C137.19857318 353.58016722 159.6871333 353.57799467 182.17570926 353.57190009 C202.76077711 353.56672979 223.34579766 353.57798815 243.93085616 353.59699831 C265.05549973 353.61635761 286.18012089 353.6246361 307.30477339 353.62087506 C319.1695229 353.61896018 331.03423213 353.62147848 342.89897442 353.6355896 C352.99896447 353.64748004 363.09888946 353.64893457 373.19888037 353.63679943 C378.35400406 353.63089442 383.5090086 353.62985602 388.66412449 353.64180183 C393.38104357 353.65260541 398.09774322 353.64962348 402.81465179 353.63554015 C404.52321139 353.63287793 406.23178789 353.63530725 407.94033097 353.64327601 C410.25937761 353.65334347 412.5776558 353.6449937 414.8966713 353.63199902 C416.1857695 353.63205403 417.4748677 353.63210905 418.80302948 353.63216573 C424.08463078 353.0617027 427.25760879 351.2505521 431.02399158 347.56976891 C435.78748695 341.35163032 435.56172382 333.54538159 435.51450062 326.07001305 C435.51620947 325.07087442 435.51791832 324.0717358 435.51967895 323.04232025 C435.52296178 319.70894791 435.51198996 316.37577882 435.50104237 313.04242516 C435.50047799 310.64718696 435.50079532 308.25194843 435.50192738 305.85671043 C435.50244138 300.03709441 435.4937849 294.21754449 435.48105206 288.39794356 C435.46672695 281.62331584 435.46375929 274.84869737 435.46147572 268.07405663 C435.45710393 255.99367466 435.44380885 243.91331977 435.42487049 231.8329525 C435.40649832 220.10150856 435.39234836 208.37007199 435.38385487 196.63861656 C435.38332942 195.91487842 435.38280397 195.19114029 435.3822626 194.44547069 C435.37965243 190.8145065 435.37712504 187.18354225 435.3746388 183.55257797 C435.35392237 153.45412264 435.31856172 123.35569895 435.27399158 93.25726891 C432.08448402 94.50196137 429.28737478 95.75440656 426.45734119 97.68622398 C425.73707249 98.17423988 425.01680378 98.66225578 424.27470875 99.16506004 C423.49974552 99.69693428 422.7247823 100.22880852 421.92633533 100.77680016 C421.09928593 101.33836311 420.27223652 101.89992607 419.42012501 102.47850609 C417.62507784 103.69760718 415.83138215 104.91870007 414.03888416 106.14154625 C409.17559722 109.45820632 404.30117429 112.75840166 399.42633533 116.05805016 C398.41799641 116.74082024 397.40965748 117.42359032 396.37076283 118.1270504 C386.06463758 125.0945905 375.6751516 131.93277993 365.27399158 138.75726891 C350.70407625 148.32246999 336.20677739 157.98640648 321.77399158 167.75726891 C305.1240653 179.02862713 288.38274891 190.15365134 271.57672596 201.19086266 C270.72298389 201.75169548 269.86924183 202.31252831 268.98962879 202.89035606 C267.29966734 204.00007923 265.60920332 205.10903746 263.91821766 206.21719933 C259.48242273 209.12865003 255.06602508 212.06563913 250.67145252 215.03900719 C249.74118244 215.66638283 248.81091236 216.29375847 247.85245228 216.94014549 C246.08811031 218.13176887 244.32694898 219.32812239 242.56979847 220.53032494 C228.33921266 230.12911655 215.052908 234.49774312 197.91071033 231.71039391 C191.72565869 230.07747865 186.46669678 227.34923163 181.10211658 223.92523766 C180.41397877 223.49032509 179.72584095 223.05541252 179.01685047 222.60732079 C170.97471354 217.48758349 163.09246955 212.12890221 155.20905018 206.76947594 C139.3154246 195.96851598 123.33843441 185.30222872 107.27399158 174.75726891 C91.81362867 164.60628491 76.44139116 154.33461346 61.12695789 143.96491051 C45.13029597 133.13691248 29.02825609 122.47489822 12.87360096 111.88422203 C11.13456054 110.74311076 9.39562488 109.60183982 7.65680408 108.46039391 C6.83581226 107.92204918 6.01482044 107.38370445 5.16895008 106.82904625 C-0.76995376 102.92167774 -6.61035823 98.89289994 -12.39446545 94.76019859 C-14.54385023 93.07666955 -14.54385023 93.07666955 -16.72600842 93.25726891 Z " fill="#000000" transform="translate(46.72600841522217,63.74273109436035)"/>
</svg>
