<?xml version="1.0" encoding="UTF-8"?>
<svg version="1.1" xmlns="http://www.w3.org/2000/svg" width="512" height="512">
<path d="M0 0 C1.25160152 -0.00384115 2.50320304 -0.00768229 3.79273188 -0.01163983 C5.17384002 -0.01085969 6.55494811 -0.00998092 7.93605614 -0.00901413 C9.40936148 -0.01159931 10.88266611 -0.01461289 12.35596979 -0.01801753 C16.40101328 -0.02607291 20.44603902 -0.02787629 24.49108958 -0.028615 C28.85526742 -0.03046811 33.2194361 -0.03801676 37.58360863 -0.04475021 C47.12507581 -0.05832379 56.66653878 -0.06435677 66.20801401 -0.06876087 C72.16780149 -0.07152501 78.12758735 -0.07576269 84.08737373 -0.08026505 C100.59407067 -0.09245657 117.10076631 -0.10275603 133.60746765 -0.10614014 C134.66364301 -0.1063597 135.71981837 -0.10657927 136.80799904 -0.10680549 C137.86667631 -0.10702377 138.92535357 -0.10724204 140.01611197 -0.10746694 C142.16133221 -0.1079104 144.30655245 -0.10835696 146.45177269 -0.10880661 C148.04792172 -0.10913875 148.04792172 -0.10913875 149.67631619 -0.10947761 C166.91407356 -0.11342466 184.15178863 -0.13087636 201.38952966 -0.15416613 C219.09481353 -0.17789415 236.80007619 -0.19034265 254.50537622 -0.19150805 C264.44317579 -0.19242401 274.38092024 -0.19815635 284.31870461 -0.21632767 C292.78184399 -0.23174824 301.24491124 -0.23683758 309.70806201 -0.22858956 C314.02346254 -0.22468996 318.33871787 -0.22557885 322.65410042 -0.23964691 C326.61077777 -0.25242725 330.56720141 -0.25115231 334.52387862 -0.2390562 C335.94920861 -0.23710633 337.37455684 -0.24014456 338.79986127 -0.24890056 C356.63439489 -0.35145614 372.45930277 4.28947018 385.56944847 16.66292191 C397.75317422 28.92723878 402.85503972 44.4173736 402.85138512 61.3630867 C402.8550618 62.28389058 402.85873849 63.20469446 402.8625266 64.15340149 C402.87352674 67.23446153 402.87740109 70.31548779 402.88121605 73.39656448 C402.88748362 75.60791505 402.89413068 77.81926457 402.90112877 80.03061295 C402.92214204 87.29077297 402.93253074 94.55093312 402.94249535 101.81111526 C402.94654436 104.31507376 402.95066132 106.81903215 402.95484543 109.32299042 C402.97171208 119.74418879 402.98634499 130.16538562 402.99359417 140.58659554 C402.99550378 143.28773754 402.99742415 145.98887954 402.99938011 148.69002151 C402.99986385 149.36130109 403.00034759 150.03258067 403.00084599 150.72420205 C403.00913286 161.58006223 403.03444843 172.43581175 403.06696079 183.2916237 C403.10013662 194.46092906 403.11772051 205.63019458 403.12123841 216.79955304 C403.12358212 223.06099729 403.13245383 229.3222666 403.15769958 235.58366394 C403.181097 241.48197318 403.18516674 247.37999374 403.1749382 253.27833748 C403.17444551 255.43245851 403.18068629 257.58659432 403.19449425 259.74067116 C403.3203244 280.55022101 400.8553769 298.20701156 385.9151516 313.91658401 C385.18554222 314.64748245 384.45593285 315.37838089 383.7042141 316.13142776 C383.13960472 316.7076387 382.57499535 317.28384964 381.9932766 317.87752151 C370.5622375 328.61154603 355.45260759 331.58195563 340.3382473 331.56380081 C339.04916969 331.57399246 337.76009209 331.58418411 336.43195152 331.5946846 C332.93269135 331.62202342 329.43359361 331.63150723 325.93424058 331.63753867 C322.26401028 331.64698326 318.59389849 331.67319104 314.92374229 331.6975441 C307.98968599 331.74104669 301.0556529 331.76969297 294.1215021 331.79286748 C286.22048207 331.82000677 278.31958223 331.86391251 270.41864836 331.9091562 C254.18055216 332.00176964 237.9424682 332.07134387 221.7042141 332.13142776 C226.6542141 342.03142776 231.6042141 351.93142776 236.7042141 362.13142776 C240.16019066 362.14560745 243.61616722 362.15978714 247.17687035 362.17439651 C250.5362623 362.20503918 253.89545786 362.24412242 257.25475121 362.28401566 C259.58345623 362.3071651 261.9122655 362.32158416 264.24107933 362.32698441 C267.59533487 362.33629581 270.94795759 362.37733753 274.30187035 362.42439651 C275.33755653 362.42046387 276.37324272 362.41653122 277.44031334 362.4124794 C284.18248216 362.547552 287.66158982 363.58235674 292.7042141 368.13142776 C295.7915055 372.41379971 296.28558507 376.43742972 296.12218285 381.59627151 C295.27905669 386.71018626 292.72975081 390.55228726 288.67621231 393.71249008 C284.57596703 395.67009306 281.05927682 395.55364739 276.57021141 395.52583694 C275.64799541 395.53192805 274.72577942 395.53801915 273.77561748 395.54429483 C270.68414575 395.5609493 267.5930848 395.55614547 264.50157738 395.55134964 C262.28562046 395.55868855 260.06966737 395.56727426 257.85371971 395.57701492 C251.83304287 395.59925864 245.81250278 395.60216015 239.79179049 395.60026741 C234.76685329 395.60014784 229.74194521 395.60870661 224.7170161 395.61704493 C212.18463561 395.63739009 199.65232181 395.63842532 187.1199355 395.6312378 C176.24172143 395.62566317 165.36374293 395.64648506 154.48558392 395.67959827 C143.31068994 395.71335019 132.13588201 395.72802728 120.96092975 395.72388124 C114.68911975 395.72181215 108.41754433 395.72731799 102.14577675 395.75177383 C96.24743072 395.77401316 90.34957533 395.77218607 84.45122719 395.75184631 C82.28688235 395.7484313 80.12250467 395.7535464 77.95820427 395.7678299 C75.00229066 395.78599103 72.04804705 395.77329597 69.09218407 395.75288773 C68.23663024 395.76540557 67.38107641 395.77792342 66.49959671 395.7908206 C60.62942675 395.70399033 56.96532946 394.22073883 52.7042141 390.13142776 C49.13647095 385.18262275 48.87207533 380.03119811 49.7042141 374.13142776 C51.18599997 369.71955684 53.80642455 366.46140369 57.75407982 363.95210648 C61.94324284 362.18917305 66.53324808 362.52733592 71.0089016 362.52205276 C72.08801811 362.50551651 73.16713463 362.48898026 74.27895164 362.4719429 C77.71243064 362.42350917 81.14546682 362.4021014 84.5792141 362.38142776 C86.91256965 362.35326434 89.24590462 362.3233364 91.5792141 362.29158401 C97.28775024 362.21444163 102.99489352 362.17387625 108.7042141 362.13142776 C113.6542141 352.23142776 118.6042141 342.33142776 123.7042141 332.13142776 C119.77885765 332.12208206 115.85350121 332.11273636 111.80919456 332.10310745 C98.8052304 332.0692627 85.80143174 332.01387065 72.79759598 331.94752502 C64.91734446 331.90784117 57.03719126 331.87539491 49.15685081 331.86043167 C42.28238832 331.84735955 35.40814315 331.82025462 28.53380311 331.7768147 C24.8992373 331.75432374 21.26493826 331.73850956 17.63029671 331.73954391 C13.55681428 331.74043869 9.48410896 331.70998109 5.41075706 331.6773262 C4.22679344 331.68235657 3.04282982 331.68738693 1.82298851 331.69256973 C-14.33587492 331.49360301 -28.2314927 326.11943585 -40.0457859 315.06892776 C-55.96309195 298.2099052 -57.90656707 278.87756326 -57.79749489 256.68342972 C-57.80128589 254.46573419 -57.80679233 252.24804103 -57.81386757 250.03035355 C-57.82773495 244.05324373 -57.816715 238.07642458 -57.80015635 232.09933114 C-57.78622303 225.82073679 -57.79277512 219.54215789 -57.79628944 213.26355362 C-57.79898444 202.72687539 -57.78566416 192.19029213 -57.76233864 181.65364456 C-57.73840695 170.84175247 -57.73134389 160.03001151 -57.74183083 149.21809769 C-57.7544923 136.14108399 -57.75192064 123.06414575 -57.73617172 109.98713112 C-57.73043463 105.01018705 -57.73047658 100.03329356 -57.73523712 95.0563488 C-57.74003082 89.19157065 -57.72980643 83.32699995 -57.70828247 77.4622612 C-57.70274771 75.31817639 -57.70221861 73.17407151 -57.70723534 71.02998543 C-57.7491233 50.55028897 -55.29936764 32.65630579 -40.6214695 17.19343948 C-29.80063648 6.41654893 -15.29002463 0.01766788 0 0 Z M-19.2957859 43.13142776 C-23.67561452 49.89681146 -24.44441996 55.98017221 -24.4362278 63.94189835 C-24.43919892 64.84143102 -24.44217004 65.7409637 -24.4452312 66.66775495 C-24.45391767 69.68845149 -24.45542641 72.70910839 -24.45691872 75.72981644 C-24.46154696 77.89311686 -24.46657163 80.05641647 -24.47196388 82.21971512 C-24.48509008 88.10212605 -24.49153338 93.98452556 -24.49597454 99.86694884 C-24.49890517 103.54220531 -24.50300998 107.21745865 -24.50747871 110.89271355 C-24.52115479 122.39209739 -24.53082067 133.89147409 -24.5346806 145.3908655 C-24.53916048 158.6642893 -24.55670471 171.93761006 -24.5856812 185.21100253 C-24.60730157 195.47101369 -24.61738509 205.73099587 -24.61872172 215.99102956 C-24.61976958 222.11866643 -24.62567323 228.24620647 -24.64354134 234.37381935 C-24.66002784 240.13990207 -24.6621746 245.90581524 -24.65340233 251.67191315 C-24.65263225 253.78542854 -24.65697085 255.89895306 -24.66686058 258.01244545 C-24.67959423 260.90384426 -24.67369539 263.79464385 -24.66327858 266.68603897 C-24.67133498 267.51699449 -24.67939139 268.34795001 -24.68769193 269.20408601 C-24.60970276 278.49771547 -21.95007395 285.43651591 -15.5457859 292.18220901 C-8.8443897 297.98775885 -0.89901311 299.25238975 7.75012207 299.26285553 C8.94598926 299.26669667 10.14185645 299.27053782 11.37396204 299.27449536 C12.67900388 299.27362888 13.98404571 299.2727624 15.32863426 299.27186966 C16.73594283 299.27445505 18.14325067 299.2774687 19.55055749 299.28087306 C23.41317598 299.28892593 27.27577586 299.29073168 31.13840175 299.29147053 C35.30625896 299.29332408 39.47410658 299.30087295 43.64195824 299.30760574 C52.753687 299.32117758 61.86541135 299.32721204 70.97714853 299.3316164 C76.66892051 299.33438086 82.36069079 299.33861859 88.05246162 299.34312057 C103.81798826 299.3553119 119.58351355 299.36561138 135.3490448 299.36899567 C136.35773838 299.36921523 137.36643195 299.3694348 138.405692 299.36966102 C139.92230915 299.36998843 139.92230915 299.36998843 141.46956503 299.37032247 C143.51832175 299.37076593 145.56707847 299.37121249 147.61583519 299.37166214 C148.63208471 299.37188357 149.64833423 299.372105 150.69537918 299.37233314 C167.1571543 299.37627999 183.61888512 299.39373119 200.08064313 299.41702166 C216.99039835 299.44075242 233.90013136 299.45319831 250.8099035 299.45436358 C260.30057334 299.45527939 269.79118546 299.46100793 279.28183937 299.4791832 C287.36436257 299.49460748 295.44681022 299.49969094 303.52934535 299.49144509 C307.65032287 299.48754679 311.77114834 299.48842798 315.89210701 299.50250244 C319.67114769 299.51529066 323.44992284 299.51400106 327.22896342 299.50191173 C329.22998821 299.49904632 331.2310178 299.5108531 333.23200572 299.52333379 C344.51825486 299.46194395 354.57589138 298.47233217 362.8604641 290.32283401 C368.79842374 283.26521673 369.85335755 276.32985526 369.85138512 267.32768631 C369.85690015 265.97944564 369.85690015 265.97944564 369.8625266 264.60396779 C369.87355862 261.58560884 369.87740648 258.56728432 369.88121605 255.54890823 C369.88748109 253.38723008 369.89412793 251.225553 369.90112877 249.06387711 C369.92216763 241.95879745 369.93253134 234.85371759 369.94249535 227.74861526 C369.94654304 225.30210356 369.95065996 222.85559198 369.95484543 220.40908051 C369.9738971 208.91450199 369.98812791 197.4199299 369.9964574 185.92533863 C370.00622862 172.66038447 370.03254541 159.39559724 370.07295829 146.1307019 C370.10312792 135.87577132 370.11792711 125.62088856 370.12123841 115.36591446 C370.12358801 109.24212306 370.13253708 103.11851 370.15769958 96.99476624 C370.18099975 91.23110731 370.18520552 85.4677439 370.1749382 79.70405006 C370.1744432 77.59256189 370.18075301 75.48105907 370.19449425 73.36961555 C370.40522087 55.0527324 370.40522087 55.0527324 361.34874535 39.60017776 C355.73396835 34.58555508 350.1182377 33.00865178 342.73705482 33 C340.89327606 32.99423828 340.89327606 32.99423828 339.01224923 32.98836017 C337.64608203 32.9891404 336.27991487 32.99001919 334.91374779 32.99098587 C333.46406658 32.98840216 332.01438608 32.98538899 330.56470656 32.98198247 C326.57583131 32.97390989 322.58697405 32.97212275 318.5980916 32.971385 C314.29803198 32.9695349 309.9979817 32.96198779 305.69792747 32.95524979 C296.29296974 32.9416642 286.88801626 32.93564142 277.48305035 32.93123913 C271.61141494 32.92847714 265.73978119 32.92423987 259.8681469 32.91973495 C243.61372671 32.9075421 227.35930785 32.89724275 211.10488319 32.89385986 C209.54421392 32.89353051 209.54421392 32.89353051 207.95201598 32.89319451 C206.38759756 32.89286709 206.38759756 32.89286709 204.79157472 32.89253306 C202.67814461 32.8920896 200.56471451 32.89164303 198.45128441 32.89119339 C196.87878054 32.89086125 196.87878054 32.89086125 195.27450892 32.89052239 C178.2861164 32.88657402 161.29776677 32.86911889 144.30939081 32.84583387 C126.87087247 32.82212463 109.43237565 32.80965821 91.99384093 32.80849195 C82.20145632 32.80757496 72.40912758 32.80181658 62.61675835 32.78367233 C54.27862029 32.76827715 45.94055538 32.76314745 37.60240582 32.77141044 C33.34827204 32.77531897 29.09428559 32.77437742 24.84016991 32.76035309 C20.94406764 32.74762647 17.0482236 32.74880071 13.15212175 32.7609438 C11.74429964 32.76290295 10.33645932 32.75981226 8.92866281 32.75109944 C-2.78201968 32.68322358 -11.19814688 34.08218149 -19.2957859 43.13142776 Z " fill="#000000" transform="translate(83.29578590393066,68.86857223510742)"/>
</svg>
