<?xml version="1.0" encoding="UTF-8"?>
<svg version="1.1" xmlns="http://www.w3.org/2000/svg" width="512" height="512">
<path d="M0 0 C24.61047209 20.85755552 41.65320534 50.34138525 44.53855896 82.80958557 C45.18578372 92.03491713 45.38332074 101.21737887 45.34765625 110.46484375 C45.34578422 111.92314098 45.34436404 113.38143885 45.34336853 114.83973694 C45.33960501 118.62236358 45.32982982 122.40494997 45.31866455 126.18756104 C45.30831547 130.06969661 45.30384242 133.95183889 45.29882812 137.83398438 C45.2882 145.41017432 45.27120075 152.98633146 45.25 160.5625 C45.85541122 160.55814941 46.46082245 160.55379883 47.08457947 160.54931641 C47.88545486 160.54593262 48.68633026 160.54254883 49.51147461 160.5390625 C50.30251083 160.53471191 51.09354706 160.53036133 51.90855408 160.52587891 C67.85297418 160.77525563 83.65533125 167.71223605 95.25 178.5625 C95.99507813 179.25472656 96.74015625 179.94695312 97.5078125 180.66015625 C110.4905062 193.84089104 116.34778664 211.89119616 116.39044189 230.09851074 C116.39489858 231.16988808 116.39489858 231.16988808 116.3994453 232.26290941 C116.40804903 234.63296746 116.40963343 237.00297451 116.41113281 239.37304688 C116.415767 241.08223578 116.42079247 242.79142365 116.42617798 244.50061035 C116.43924863 249.12916211 116.44573682 253.75769939 116.45018864 258.38626671 C116.45312883 261.28502468 116.45723545 264.18377878 116.46169281 267.08253479 C116.47535552 276.17226628 116.4850274 285.26198883 116.4888947 294.35172987 C116.49336844 304.80644031 116.51088972 315.26101956 116.5398953 325.71569014 C116.56159451 333.82134497 116.57160341 341.92696312 116.57293582 350.03264666 C116.57397823 354.86210215 116.57976458 359.69143413 116.59775543 364.52085876 C116.61437862 369.07146078 116.61632343 373.62184831 116.60761642 378.17247009 C116.60685353 379.82992126 116.6110883 381.48738465 116.62107468 383.14480591 C116.69757401 396.64819979 116.206595 410.91665072 109.5 423 C109.14856934 423.66265869 108.79713867 424.32531738 108.43505859 425.00805664 C99.92169737 440.65936673 86.84151344 451.70718803 70.08984375 457.69140625 C61.4386697 460.15467039 53.16812581 460.71051406 44.22094727 460.70294189 C42.567887 460.70739858 42.567887 460.70739858 40.88143158 460.7119453 C37.19308207 460.72060846 33.50476512 460.72213854 29.81640625 460.72363281 C27.16979318 460.72826273 24.52318302 460.73326738 21.87657166 460.73867798 C14.68819341 460.75223173 7.49982077 460.75828166 0.31143188 460.76268864 C-4.18284218 460.76545659 -8.6771141 460.76969499 -13.17138672 460.77419281 C-25.63084783 460.7863826 -38.09030723 460.79668184 -50.54977417 460.8000679 C-51.34647754 460.80028747 -52.14318091 460.80050703 -52.96402681 460.80073325 C-53.76256912 460.80095153 -54.56111144 460.80116981 -55.38385201 460.8013947 C-57.00183233 460.80183816 -58.61981265 460.80228472 -60.23779297 460.80273438 C-61.44163812 460.80306652 -61.44163812 460.80306652 -62.66980338 460.80340537 C-75.66020229 460.80734934 -88.65054498 460.8247924 -101.64092219 460.8480939 C-114.99909504 460.87186034 -128.35723975 460.88427219 -141.71543407 460.88543582 C-149.20695752 460.88634972 -156.69840772 460.89202955 -164.18991089 460.91025543 C-170.57199586 460.92572818 -176.95398495 460.93073497 -183.33608514 460.92251733 C-186.58660219 460.91863574 -189.83688814 460.92108098 -193.08738899 460.93357468 C-225.88156805 461.05217278 -225.88156805 461.05217278 -239.0625 453.875 C-239.72709229 453.52542236 -240.39168457 453.17584473 -241.07641602 452.81567383 C-256.63607214 444.38272207 -267.89733422 431.01776274 -273.53985023 414.20967102 C-276.21483878 404.82886275 -276.17444078 395.79691089 -276.13818359 386.1328125 C-276.14225613 384.29831633 -276.14760182 382.46382262 -276.15411377 380.6293335 C-276.16771202 375.67892107 -276.16251985 370.72869762 -276.15297651 365.77828217 C-276.1453409 360.57890848 -276.15243631 355.37955015 -276.15713501 350.18017578 C-276.16258124 341.45146808 -276.15543073 332.72283672 -276.14111328 323.99414062 C-276.12478898 313.92617487 -276.13007829 303.85839142 -276.1465925 293.79043007 C-276.16023969 285.12084209 -276.16211125 276.45130875 -276.15427649 267.78171349 C-276.14961772 262.61488231 -276.14892543 257.4481366 -276.15888596 252.28131104 C-276.16760054 247.42203558 -276.16145223 242.56299344 -276.14420319 237.70374298 C-276.14026222 235.92851396 -276.14133101 234.15326503 -276.14799118 232.37804413 C-276.21818299 211.75561084 -271.40900505 194.80205971 -256.75 179.5625 C-244.02661663 167.35667798 -227.07328427 160.47071018 -209.5 160.54296875 C-208.16195312 160.54719849 -208.16195312 160.54719849 -206.796875 160.55151367 C-206.12140625 160.55513916 -205.4459375 160.55876465 -204.75 160.5625 C-204.75888245 159.61719421 -204.76776489 158.67188843 -204.7769165 157.69793701 C-204.85874164 148.69795586 -204.91831459 139.69805218 -204.95724869 130.69778061 C-204.97793939 126.07293698 -205.0059087 121.44839853 -205.05175781 116.82373047 C-205.41458412 79.22116657 -201.60453173 46.36456391 -176.75 16.5625 C-176.03070313 15.68980469 -175.31140625 14.81710938 -174.5703125 13.91796875 C-131.02213708 -36.72871878 -51.2473797 -40.75352635 0 0 Z M-139.75 26.5625 C-140.95269531 27.52929688 -140.95269531 27.52929688 -142.1796875 28.515625 C-158.66705788 42.38350663 -168.24803607 62.55071641 -171.75 83.5625 C-171.75 108.9725 -171.75 134.3825 -171.75 160.5625 C-111.03 160.5625 -50.31 160.5625 12.25 160.5625 C14.93642607 115.68334342 14.93642607 115.68334342 7.5 67.125 C7.10312988 66.00702026 7.10312988 66.00702026 6.69824219 64.86645508 C-1.57535435 42.26128162 -18.44778728 24.10839706 -40.125 13.75 C-72.54104784 -1.10349921 -112.40121465 3.50185173 -139.75 26.5625 Z M-233.75 203.5625 C-239.80641141 211.01548116 -243.11974539 218.64384122 -243.13768005 228.29074097 C-243.14306559 229.02556013 -243.14845113 229.7603793 -243.15399987 230.51746571 C-243.16820148 232.95696856 -243.16119533 235.39592276 -243.15405273 237.83544922 C-243.15976044 239.59378492 -243.16672624 241.35211692 -243.17485046 243.11044312 C-243.19275378 247.87087327 -243.19161868 252.6311188 -243.18590808 257.39157248 C-243.18281182 261.37254058 -243.18891362 265.35347345 -243.19494683 269.33443654 C-243.20898147 278.72998636 -243.20743988 288.12544523 -243.19604492 297.52099609 C-243.18456743 307.19815093 -243.19863563 316.8750285 -243.2254414 326.55214679 C-243.24762887 334.87513292 -243.25422883 343.19803221 -243.24836498 351.5210458 C-243.24500118 356.48558323 -243.24737203 361.44994299 -243.26461601 366.41445541 C-243.28013144 371.0849488 -243.27607876 375.75503292 -243.25731087 380.42551041 C-243.25363754 382.13385187 -243.2566966 383.84222397 -243.26719666 385.55053711 C-243.33930951 398.25897302 -241.94925443 409.01416672 -232.75 418.5625 C-223.64670415 426.40342474 -213.06958522 428.02187532 -201.39610291 427.94345093 C-199.76325099 427.95047089 -199.76325099 427.95047089 -198.09741217 427.95763266 C-194.47879568 427.96952257 -190.86056213 427.96014878 -187.24194336 427.95068359 C-184.63588745 427.95475192 -182.02983328 427.96009527 -179.42378235 427.96661377 C-173.09788698 427.9799069 -166.7720988 427.97709332 -160.44619935 427.96837585 C-155.30256458 427.96158282 -150.15895971 427.96068956 -145.01532173 427.9639473 C-143.91451902 427.96463684 -143.91451902 427.96463684 -142.79147788 427.96534032 C-141.30035006 427.96629956 -139.80922224 427.9672722 -138.31809444 427.9682581 C-124.35810783 427.97679888 -110.39818047 427.96699818 -96.43820358 427.950857 C-84.47464189 427.9374522 -72.51116754 427.93978578 -60.54760742 427.95361328 C-46.63381612 427.96968748 -32.72007663 427.97597798 -18.80627733 427.96677649 C-17.32113907 427.9658209 -15.83600079 427.96487779 -14.3508625 427.9639473 C-13.62026116 427.96348447 -12.88965981 427.96302164 -12.13691903 427.96254479 C-7.0023327 427.95996063 -1.86777939 427.96431344 3.26680183 427.97138596 C10.18371784 427.98070468 17.10046656 427.97401882 24.01736641 427.95670319 C26.55295031 427.95274281 29.0885481 427.95386467 31.62412643 427.96049118 C35.09063238 427.9687141 38.55661382 427.95837538 42.02308655 427.94345093 C43.52062732 427.95348918 43.52062732 427.95348918 45.04842144 427.96373022 C56.44657464 427.8688387 65.99941321 424.67720447 74.2265625 416.62890625 C83.41555446 405.97358578 83.84121492 392.87953092 83.76757812 379.50390625 C83.77301112 377.82851558 83.78014034 376.15312969 83.78881836 374.47775269 C83.80691481 369.96527563 83.8000413 365.45316805 83.78730202 360.94068527 C83.77710286 356.1955549 83.78658675 351.45045402 83.79284668 346.70532227 C83.80010309 338.74001445 83.79058828 330.77485548 83.77148438 322.80957031 C83.74971952 313.62938666 83.75677231 304.44955848 83.77879 295.26938343 C83.79700141 287.35642635 83.79947437 279.44357565 83.78903532 271.53060436 C83.78283183 266.81812408 83.7818774 262.10581033 83.79518127 257.39334106 C83.80682317 252.96077135 83.79856357 248.52865541 83.77560425 244.09613419 C83.77036133 242.47935867 83.77175417 240.86254428 83.78065491 239.24578476 C83.84359258 226.64167783 82.81571998 214.43923543 74.22265625 204.49609375 C64.81379598 195.27354754 53.7696492 193.09703597 40.95425415 193.17481995 C39.87188646 193.16943441 38.78951876 193.16404887 37.67435205 193.15850013 C34.07656554 193.14428444 30.47915028 193.15130863 26.88134766 193.15844727 C24.29001064 193.15274037 21.69867614 193.14577487 19.10734558 193.13764954 C12.81654545 193.12051493 6.52584544 193.11961039 0.23502804 193.12486244 C-4.88188514 193.12891546 -9.9987689 193.12744719 -15.11568069 193.12211418 C-15.84590764 193.12136576 -16.57613458 193.12061734 -17.32848961 193.11984624 C-18.81228323 193.11831465 -20.29607685 193.1167763 -21.77987047 193.11523127 C-35.67270232 193.10152548 -49.56547775 193.10693032 -63.45830829 193.11841648 C-76.14590745 193.12834628 -88.83336071 193.11540919 -101.52093737 193.09148229 C-114.57413677 193.06705288 -127.62726834 193.05749287 -140.68049014 193.06413502 C-147.99863912 193.06761879 -155.31667598 193.06545107 -162.63480759 193.04788399 C-169.51811658 193.0315645 -176.40114335 193.03640325 -183.28444481 193.05518913 C-185.80425782 193.0588669 -188.32409155 193.05579039 -190.84388542 193.04530334 C-214.12575419 192.43138195 -214.12575419 192.43138195 -233.75 203.5625 Z " fill="#000000" transform="translate(334.75,39.4375)"/>
<path d="M0 0 C4.24902561 3.75495286 6.3886964 6.87743822 7.06201172 12.50537109 C7.2172037 16.42330652 7.24443694 20.33016767 7.21875 24.25 C7.22144873 25.70296488 7.22533432 27.15592798 7.23034668 28.60888672 C7.23622393 31.64503274 7.22773692 34.68070608 7.20898438 37.71679688 C7.18619501 41.59383779 7.19932777 45.4697709 7.22327423 49.34677124 C7.23778083 52.34440341 7.2331042 55.3417762 7.22276306 58.3394165 C7.22010915 59.76825087 7.22331821 61.19710937 7.23268127 62.62591553 C7.30364324 76.49606918 7.30364324 76.49606918 2.6875 82.375 C-1.86533796 86.3984382 -6.33829711 87.63565458 -12.3125 87.375 C-17.55242615 85.80302215 -20.81646183 83.57024581 -24.3125 79.375 C-26.21797003 75.50918794 -26.57336093 72.34655338 -26.60302734 68.05932617 C-26.61578705 66.80419724 -26.62854675 65.5490683 -26.64169312 64.25590515 C-26.6447513 62.89326126 -26.64697878 61.53061529 -26.6484375 60.16796875 C-26.65487115 58.7593828 -26.66159993 57.35079817 -26.66860962 55.94221497 C-26.68056521 52.99261378 -26.6842923 50.04312955 -26.68310547 47.09350586 C-26.68290255 43.33091883 -26.71018302 39.56908943 -26.74464989 35.80668163 C-26.76699118 32.89741129 -26.7709408 29.98832108 -26.76988602 27.07897377 C-26.77223195 25.69280707 -26.78099825 24.30663464 -26.79655075 22.92055321 C-26.87699441 15.00969234 -26.76840637 9.06188325 -22.3125 2.375 C-15.3069688 -3.3169941 -8.0969509 -3.97208912 0 0 Z " fill="#000000" transform="translate(264.3125,307.625)"/>
</svg>
